<?xml version="1.0" standalone="no"?><!DOCTYPE svg PUBLIC "-//W3C//DTD SVG 1.1//EN" "http://www.w3.org/Graphics/SVG/1.1/DTD/svg11.dtd"><svg class="icon" height="680" viewBox="0 0 1024 1024" fill="#F0F0FF" version="1.1" xmlns="http://www.w3.org/2000/svg"><path d="M688.070576 711.156876l0-14.654768C762.894725 669.425426 882.963335 611.68128 882.963335 519.831362c0-36.555567-113.725134-58.467623-253.358335-58.467623l0 97.445356L454.202131 383.40725l175.402869-155.911956 0 97.445356c0 0 331.314825-5.050016 331.314825 175.401846C960.918801 650.000004 797.076222 698.836269 688.070576 711.156876zM337.266885 362.649484c-74.822103 27.076682-194.891735 84.808548-194.891735 176.670745 0 36.554544 113.725134 58.467623 253.358335 58.467623l0-97.446379 175.401846 175.401846L395.734508 831.65732l0-97.446379c0 0-331.314825 5.051039-331.314825-175.401846 0-149.644205 163.842579-198.494797 272.847202-210.815403L337.266885 362.649484z" /></svg>